# xmcd CD database file
#
# Track frame offsets:
#	182
#	13437
#	25602
#	38540
#	52722
#	70665
#	85957
#	109210
#	128570
#	147750
#	162837
#
# Disc length: 2385 seconds
#
# Revision: 0
# Processed by: cddbd v1.5.2PL0 Copyright (c) Steve Scherf et al.
# Submitted via: CDex 1.70beta2
#
DISCID=81094f0b
DTITLE=Earl Hines - The Indispensable Earl Hines Volumes 5/6 (1944 -1966) "The Bob Thiele Sessions" [CD1_2)
DYEAR=1992
DGENRE=Jazz
TTITLE0=My fate is in your hands
TTITLE1=I've got a feeling i'm falling
TTITLE2=Honeysuckle rose
TTITLE3=Squeeze me
TTITLE4=Undecided
TTITLE5=I've found a new baby
TTITLE6=Fatha's blues
TTITLE7=A sunday kind of love
TTITLE8=Squeeze me
TTITLE9=Tosca's dance
TTITLE10=Jim
EXTD=YEAR: 1992
EXTT0=
EXTT1=
EXTT2=
EXTT3=
EXTT4=
EXTT5=
EXTT6=
EXTT7=
EXTT8=
EXTT9=
EXTT10=
PLAYORDER=
